<svg width="101" height="60" viewBox="0 0 101 60" fill="none" xmlns="http://www.w3.org/2000/svg">
<path d="M82.2549 41.9464C85.818 41.5125 93.6757 40.5785 95.0746 42.3803C96.4728 44.149 93.5097 51.591 92.1776 54.8942C91.7781 55.8957 92.6439 56.2959 93.5427 55.5286C99.4029 50.5895 100.935 40.2775 99.7363 38.7761C98.5371 37.3083 88.2487 36.0396 81.9884 40.4449C81.0227 41.1454 81.1894 42.08 82.2549 41.9464Z" fill="#FF9900"/>
<path d="M49.9566 60.0001C63.642 60.0001 79.5577 55.6947 90.5129 47.586C92.3106 46.2512 90.7457 44.2159 88.9142 45.05C76.6277 50.2556 63.2756 52.7922 51.122 52.7922C33.1082 52.7922 15.6937 47.8201 1.57635 39.6109C0.343442 38.8767 -0.58849 40.1447 0.443317 41.0793C13.4965 52.8921 30.7774 60.0001 49.9566 60.0001Z" fill="#FF9900"/>
<path d="M28.2137 21.7908C28.2137 23.0257 28.3466 24.0265 28.5794 24.7607C28.8754 25.5865 29.2318 26.3895 29.6456 27.163C29.8116 27.4303 29.8784 27.6975 29.8784 27.931C29.8784 28.265 29.6787 28.5991 29.2455 28.9324L27.1481 30.334C26.8485 30.5338 26.5482 30.6343 26.2823 30.6343C25.9489 30.6343 25.6163 30.467 25.2836 30.1667C24.8346 29.6835 24.4331 29.1583 24.0844 28.5984C23.7121 27.9571 23.3677 27.3002 23.0519 26.6293C20.4552 29.6997 17.1917 31.2349 13.2629 31.2349C10.4658 31.2349 8.23547 30.4339 6.60374 28.8326C4.97202 27.2305 4.13928 25.094 4.13928 22.4251C4.13928 19.5881 5.13802 17.2856 7.16924 15.5507C9.20047 13.815 11.8977 12.9479 15.3279 12.9479C16.4596 12.9479 17.625 13.0477 18.8572 13.2144C20.0888 13.3818 21.3541 13.6483 22.6862 13.9486V11.5125C22.6862 8.97652 22.153 7.2078 21.1206 6.1733C20.0557 5.13879 18.2573 4.63875 15.6936 4.63875C14.5282 4.63875 13.3297 4.77169 12.0975 5.07198C10.8733 5.36441 9.67157 5.74372 8.50135 6.20704C8.12272 6.37686 7.73342 6.52181 7.33593 6.64095C7.10311 6.70708 6.93643 6.74082 6.80282 6.74082C6.33719 6.74082 6.1037 6.40746 6.1037 5.70632V4.07122C6.1037 3.53743 6.17118 3.13659 6.33719 2.90377C6.50319 2.66961 6.80282 2.43612 7.26912 2.20195C8.43454 1.60136 9.83345 1.10131 11.4645 0.700468C13.0962 0.267231 14.8285 0.0661328 16.6593 0.0661328C20.6219 0.0661328 23.5182 0.967698 25.3828 2.76948C27.2142 4.57126 28.1468 7.30835 28.1468 10.9787V21.7908H28.2137ZM14.6949 26.8634C15.7935 26.8634 16.9259 26.663 18.1243 26.2628C19.3228 25.862 20.3884 25.1278 21.2873 24.127C21.8204 23.4927 22.2199 22.7922 22.4196 21.9912C22.6194 21.1902 22.7523 20.2225 22.7523 19.0881V17.6865C21.7427 17.4403 20.7201 17.2511 19.6893 17.1196C18.6512 16.9872 17.6059 16.9201 16.5594 16.9185C14.3285 16.9185 12.6967 17.3524 11.5981 18.2533C10.4995 19.1549 9.96639 20.4229 9.96639 22.0911C9.96639 23.6594 10.3659 24.8275 11.1986 25.6285C11.9976 26.4626 13.163 26.8634 14.6942 26.8634H14.6949ZM41.4321 30.467C40.8329 30.467 40.4334 30.3671 40.1668 30.1336C39.9009 29.9332 39.6674 29.4655 39.4677 28.8319L31.6431 3.03671C31.4434 2.36863 31.3435 1.9354 31.3435 1.70191C31.3435 1.16812 31.6094 0.867825 32.1425 0.867825H35.4053C36.0382 0.867825 36.4715 0.967699 36.7043 1.20119C36.9709 1.40161 37.1699 1.86926 37.3703 2.50292L42.9646 24.594L48.1588 2.50292C48.3248 1.83485 48.5245 1.40161 48.7911 1.20119C49.0576 1.00076 49.5233 0.867825 50.1232 0.867825H52.7867C53.4197 0.867825 53.8523 0.967699 54.1188 1.20119C54.3854 1.40161 54.6182 1.86926 54.7511 2.50292L60.0121 24.8612L65.773 2.50292C65.9721 1.83485 66.2049 1.40161 66.4384 1.20119C66.705 1.00076 67.1375 0.867825 67.7375 0.867825H70.8335C71.3667 0.867825 71.6663 1.13438 71.6663 1.70191C71.6663 1.86859 71.6332 2.03527 71.5995 2.23569C71.5474 2.52023 71.4695 2.79942 71.3667 3.06978L63.3423 28.8663C63.1419 29.5337 62.9091 29.9669 62.6425 30.1674C62.3767 30.3678 61.9434 30.5014 61.3772 30.5014H58.514C57.881 30.5014 57.4477 30.4009 57.1818 30.1674C56.916 29.9339 56.6825 29.5 56.5495 28.8326L51.3885 7.30903L46.2605 28.7995C46.0938 29.4669 45.8941 29.9008 45.6275 30.1343C45.3616 30.3678 44.8953 30.4677 44.2961 30.4677L41.4321 30.467ZM84.2194 31.3686C82.4878 31.3686 80.7562 31.1681 79.0914 30.768C77.4266 30.3671 76.1282 29.9332 75.2624 29.4325C74.7293 29.1322 74.3636 28.7981 74.2299 28.4985C74.1004 28.2038 74.0324 27.8858 74.0302 27.5639V25.862C74.0302 25.1615 74.2968 24.8275 74.7961 24.8275C74.9959 24.8275 75.1956 24.8612 75.3954 24.9274C75.5951 24.9948 75.8947 25.1278 76.2281 25.2614C77.4041 25.7796 78.632 26.171 79.891 26.4288C81.2225 26.6961 82.5215 26.8297 83.8529 26.8297C85.951 26.8297 87.5827 26.4626 88.7144 25.7284C89.8467 24.9942 90.446 23.9266 90.446 22.558C90.446 21.6241 90.1464 20.8568 89.5471 20.2225C88.9479 19.5881 87.8155 19.0213 86.1838 18.4875L81.3561 16.9853C78.9254 16.2181 77.127 15.0837 76.0284 13.5815C74.9297 12.1131 74.3636 10.478 74.3636 8.74303C74.3636 7.34142 74.6632 6.10649 75.2624 5.03892C75.8617 3.97134 76.6607 3.03671 77.6601 2.3025C78.6588 1.53523 79.7905 0.967699 81.1226 0.567528C82.4547 0.166682 83.8529 0 85.318 0C86.0508 0 86.8168 0.0337412 87.549 0.133615C88.3149 0.233489 89.014 0.367105 89.7131 0.50072C90.3792 0.667402 91.0122 0.834083 91.6114 1.03383C92.2106 1.23493 92.6769 1.43468 93.0096 1.6351C93.4759 1.90233 93.8093 2.16889 94.0091 2.46918C94.2088 2.73641 94.3087 3.10352 94.3087 3.5705V5.13946C94.3087 5.84061 94.0421 6.20771 93.5427 6.20771C93.2762 6.20771 92.8436 6.0741 92.2775 5.80687C90.3792 4.93972 88.2481 4.5058 85.8842 4.5058C83.9866 4.5058 82.4878 4.8061 81.456 5.43976C80.4235 6.0741 79.891 7.0418 79.891 8.41034C79.891 9.3443 80.2237 10.1446 80.8898 10.779C81.5558 11.4133 82.7874 12.0476 84.5521 12.6145L89.2806 14.1167C91.6782 14.8839 93.4091 15.9522 94.4416 17.32C95.4741 18.6879 95.9735 20.2562 95.9735 21.9919C95.9735 23.4265 95.6738 24.7283 95.1077 25.8627C94.5084 26.997 93.7094 27.9985 92.677 28.7995C91.6445 29.6336 90.4129 30.2342 88.9809 30.6681C87.4828 31.1351 85.9172 31.3686 84.2194 31.3686Z" fill="#252F3E"/>
</svg>
