<svg width="80" height="62" viewBox="0 0 80 62" fill="none" xmlns="http://www.w3.org/2000/svg">
<path d="M37.0141 58.6591L55.8761 55.3239L56.0507 55.2845L46.3493 43.7408C43.0958 39.891 39.8601 36.0261 36.6423 32.1465C36.6423 32.0901 46.6648 4.49014 46.7211 4.39437C52.2663 13.8875 57.7762 23.4012 63.2507 32.9352L79.8704 61.7521L80 61.9718L18.3211 61.9662L37.0141 58.6591ZM0 55.1437C0 55.1268 4.56901 47.1887 10.1577 37.5042L20.3211 19.8873L32.1634 9.9493C38.6761 4.49014 44.0225 0 44.0394 0C43.9974 0.166679 43.935 0.327525 43.8535 0.478873L30.9859 28.062L18.3662 55.1493L9.1831 55.1606C4.12958 55.1662 0 55.1606 0 55.1437Z" fill="#0089D6"/>
</svg>
