<svg width="62" height="73" viewBox="0 0 62 73" fill="none" xmlns="http://www.w3.org/2000/svg">
<path fill-rule="evenodd" clip-rule="evenodd" d="M8.74921 0.00660706C6.05876 0.00660706 3.87817 2.59925 3.87817 5.79414V67.2065C3.87817 70.4037 6.05876 72.994 8.74921 72.994H52.7009C55.3904 72.994 57.5729 70.4037 57.5729 67.2065V23.1727L39.4234 0.00660706H8.74921Z" fill="#45B058"/>
<path d="M22.4962 61.523C22.2888 61.523 22.0978 61.4204 21.9777 61.2151L18.3982 55.5462L14.8022 61.2151C14.6813 61.4204 14.4911 61.523 14.2837 61.523C13.9035 61.523 13.5924 61.174 13.5924 60.7018C13.5924 60.5375 13.626 60.3528 13.7307 60.209L17.4658 54.3565L13.9909 48.8518C13.9045 48.7081 13.8517 48.5439 13.8517 48.3796C13.8517 47.9895 14.1282 47.5584 14.544 47.5584C14.7514 47.5584 14.9588 47.6816 15.097 47.8869L18.3982 53.1657L21.6993 47.8663C21.8212 47.661 22.0104 47.5584 22.2187 47.5584C22.5817 47.5584 22.9274 47.9074 22.9274 48.3796C22.9274 48.5439 22.8928 48.7081 22.8054 48.8518L19.3305 54.336L23.0666 60.209C23.153 60.3528 23.1866 60.517 23.1866 60.6813C23.1866 61.1329 22.8755 61.523 22.4962 61.523ZM32.0876 61.3793H26.8497C26.2784 61.3793 25.8118 60.825 25.8118 60.1474V48.3796C25.8118 47.9279 26.1229 47.5584 26.555 47.5584C26.9352 47.5584 27.2473 47.9279 27.2473 48.3796V59.86H32.0876C32.4323 59.86 32.7098 60.1885 32.7098 60.5991C32.7098 61.0508 32.4323 61.3793 32.0876 61.3793ZM38.7916 61.6257C37.0805 61.6257 35.7305 60.9482 34.7463 59.9205C34.5908 59.7562 34.5216 59.5304 34.5216 59.3045C34.5216 58.8939 34.7809 58.4422 35.1957 58.4422C35.334 58.4422 35.4895 58.4833 35.6115 58.6065C36.4065 59.4482 37.5126 60.1052 38.8444 60.1052C40.9021 60.1052 41.5579 58.7912 41.5579 57.743C41.5579 54.2105 34.73 56.1621 34.73 51.2734C34.73 49.0149 36.4238 47.474 38.6889 47.474C40.1752 47.474 41.4552 48.0078 42.3885 48.9317C42.544 49.0959 42.6314 49.3218 42.6314 49.5476C42.6314 49.9582 42.3366 50.3689 41.9564 50.3689C41.8172 50.3689 41.6616 50.3073 41.5416 50.1841C40.6937 49.3628 39.6404 48.9933 38.5852 48.9933C37.2025 48.9933 36.2164 49.8761 36.2164 51.1707C36.2164 54.2515 43.0452 52.4847 43.0452 57.5993C43.0452 59.5931 41.9045 61.6257 38.7916 61.6257Z" fill="white"/>
<path fill-rule="evenodd" clip-rule="evenodd" d="M57.5662 23.214V24.3546H45.2748C45.2748 24.3546 39.2141 22.9174 39.3918 16.7045C39.3918 16.7045 39.5905 23.214 45.1548 23.214H57.5662Z" fill="#349C42"/>
<path opacity="0.5" fill-rule="evenodd" clip-rule="evenodd" d="M39.4148 0V16.6086C39.4148 18.4975 40.4748 23.214 45.2758 23.214H57.5672L39.4148 0Z" fill="white"/>
</svg>
