<svg width="85" height="85" viewBox="0 0 85 85" fill="none" xmlns="http://www.w3.org/2000/svg">
<path d="M15.4062 65.3438L15.8578 64.7142L37.1609 24.302L37.2061 23.8744L27.8162 6.23688C27.6443 5.91435 27.3754 5.65404 27.0474 5.49277C26.7194 5.33151 26.349 5.27745 25.9887 5.33825C25.6283 5.39905 25.2961 5.57162 25.0392 5.83157C24.7823 6.09151 24.6136 6.42565 24.557 6.78673L15.4062 65.3438Z" fill="#FFC24A"/>
<path d="M15.6719 64.8656L16.0119 64.2016L37.0945 24.2091L27.7286 6.5025C27.5741 6.19457 27.3241 5.94497 27.0158 5.7911C26.7076 5.63723 26.3578 5.58737 26.0189 5.649C25.68 5.71063 25.3701 5.88041 25.1358 6.13293C24.9014 6.38545 24.7552 6.70709 24.7191 7.04969L15.6719 64.8656Z" fill="#FFA712"/>
<path d="M44.0513 37.2141L51.0426 30.0422L44.0486 16.7052C43.8947 16.4181 43.6658 16.1782 43.3863 16.011C43.1069 15.8437 42.7872 15.7554 42.4615 15.7554C42.1358 15.7554 41.8162 15.8437 41.5367 16.011C41.2573 16.1782 41.0284 16.4181 40.8744 16.7052L37.1371 23.8292V24.4375L44.0513 37.2141Z" fill="#F4BD62"/>
<path d="M43.9264 36.9219L50.7237 29.9626L43.9264 17.0001C43.8151 16.7195 43.6251 16.4771 43.3792 16.3021C43.1332 16.127 42.8419 16.0269 42.5404 16.0137C42.2388 16.0005 41.9399 16.0748 41.6797 16.2277C41.4194 16.3805 41.2089 16.6054 41.0736 16.8752L37.3176 24.1241L37.2061 24.4933L43.9264 36.9219Z" fill="#FFA50E"/>
<path d="M15.4116 65.3463L15.6162 65.1392L16.3572 64.839L43.6104 37.6868L43.9557 36.7465L37.1583 23.7893L15.4116 65.3463Z" fill="#F6820C"/>
<path d="M44.9225 79.0394L69.5938 65.2826L62.5441 21.9034C62.4935 21.5976 62.3597 21.3117 62.1573 21.0769C61.9549 20.8422 61.6917 20.6678 61.3967 20.5728C61.1017 20.4779 60.7861 20.466 60.4848 20.5386C60.1835 20.6112 59.908 20.7654 59.6886 20.9844L15.4062 65.3437L39.9314 79.0367C40.6939 79.4622 41.5525 79.6855 42.4256 79.6855C43.2988 79.6855 44.1574 79.4622 44.9198 79.0367" fill="#FDE068"/>
<path d="M69.368 65.1684L62.3767 22.1159C62.3644 21.8234 62.2655 21.5411 62.0927 21.3048C61.9199 21.0685 61.6809 20.8888 61.4059 20.7884C61.1309 20.6881 60.8322 20.6715 60.5478 20.7409C60.2634 20.8103 60.006 20.9625 59.8081 21.1782L15.6719 65.2613L39.9261 78.8082C40.6825 79.2302 41.5342 79.4517 42.4004 79.4517C43.2665 79.4517 44.1183 79.2302 44.8747 78.8082L69.368 65.1684Z" fill="#FCCA3F"/>
<path d="M44.9225 78.6251C44.16 79.0506 43.3014 79.2739 42.4283 79.2739C41.5551 79.2739 40.6965 79.0506 39.9341 78.6251L15.6081 65.1367L15.4062 65.3439L39.9314 79.0368C40.6939 79.4623 41.5525 79.6856 42.4256 79.6856C43.2988 79.6856 44.1574 79.4623 44.9198 79.0368L69.5938 65.2828L69.5327 64.9109L44.9225 78.6251Z" fill="#EEAB37"/>
</svg>
