<svg width="85" height="85" viewBox="0 0 85 85" fill="none" xmlns="http://www.w3.org/2000/svg">
<g clip-path="url(#clip0_302_670)">
<path fill-rule="evenodd" clip-rule="evenodd" d="M79.1418 40.4186C79.0654 40.4339 78.9887 40.6024 78.9887 40.6942C78.9734 41.3071 78.9582 42.9311 78.9582 44.0341C78.9582 44.0648 79.004 44.1261 79.05 44.1261C79.2797 44.1414 79.8312 44.1566 80.3062 44.1566C80.965 44.1566 81.348 44.0648 81.5626 43.973C82.114 43.6971 82.3744 43.0996 82.3744 42.4407C82.3744 40.9549 81.3327 40.3879 79.7852 40.3879C79.678 40.3726 79.3719 40.3726 79.1418 40.4186ZM83.0946 47.2668C83.0946 45.75 81.9762 44.9074 79.9539 44.9074C79.862 44.9074 79.2185 44.8921 79.0652 44.9226C79.0193 44.9381 78.9582 44.9688 78.9582 45.0148C78.9582 46.1023 78.9427 47.8337 78.9887 48.5077C79.0193 48.7988 79.2339 49.2125 79.4944 49.335C79.77 49.4882 80.3982 49.5188 80.8272 49.5188C82.0374 49.5188 83.0946 48.8447 83.0946 47.2668ZM76.0167 39.5761C76.1698 39.5761 76.6293 39.6219 77.809 39.6219C78.9274 39.6219 79.816 39.5914 80.9037 39.5914C82.2365 39.5914 84.0749 40.0662 84.0749 42.0579C84.0749 43.0383 83.3855 43.8198 82.4817 44.2028C82.4359 44.2181 82.4359 44.2486 82.4817 44.2639C83.7685 44.5858 84.9023 45.3823 84.9023 46.8836C84.9023 48.3545 83.9831 49.289 82.6502 49.8712C81.8382 50.2235 80.8272 50.346 79.8007 50.346C79.0193 50.346 76.9205 50.2542 75.7562 50.2849C75.6337 50.2388 75.8635 49.6873 75.9705 49.5955C76.2465 49.58 76.4608 49.5648 76.752 49.4728C77.1657 49.3657 77.2115 49.243 77.2728 48.615C77.3035 48.0787 77.3035 46.1789 77.3035 44.8308C77.3035 42.9771 77.3189 41.7208 77.3035 41.1081C77.2882 40.6333 77.1197 40.4799 76.7827 40.3879C76.522 40.3421 76.0932 40.2807 75.7408 40.2348C75.6641 40.1581 75.9246 39.6372 76.0167 39.5761ZM67.1767 49.1052C67.5446 49.3961 68.2646 49.5186 68.9081 49.5186C69.7353 49.5186 70.5626 49.3657 71.3593 48.6454C72.1713 47.9102 72.7381 46.7765 72.7381 44.9688C72.7381 43.2374 72.0793 41.8279 70.7311 41.0008C69.9651 40.5257 68.9846 40.3268 67.8509 40.3268C67.5139 40.3268 67.1921 40.3421 66.9931 40.4339C66.9469 40.4646 66.8398 40.6024 66.8398 40.6789C66.8091 40.9854 66.8091 43.3446 66.8091 44.7236C66.8091 46.1483 66.8091 48.14 66.8398 48.3698C66.8398 48.5997 66.9469 48.952 67.1769 49.1052H67.1767ZM63.699 39.5759C63.9902 39.5759 65.1085 39.6219 65.6447 39.6219C66.6101 39.6219 67.2994 39.5761 69.1224 39.5761C70.6544 39.5761 71.9413 39.9896 72.8606 40.7709C73.9789 41.7361 74.5612 43.0691 74.5612 44.6929C74.5612 47.0063 73.504 48.3392 72.4469 49.1052C71.39 49.8865 70.0111 50.346 68.0501 50.346C67.0084 50.346 65.2159 50.3155 63.7297 50.3H63.7144C63.6379 50.1622 63.837 49.626 63.9595 49.6107C64.3579 49.5648 64.4652 49.5493 64.6644 49.4729C64.986 49.3503 65.0474 49.1818 65.0934 48.615C65.1392 47.5578 65.1239 46.2863 65.1239 44.8461C65.1239 43.8198 65.1392 41.8127 65.1085 41.1692C65.0627 40.6331 64.8329 40.4952 64.3732 40.4032C64.1434 40.3574 63.837 40.2959 63.4081 40.2501C63.3467 40.1427 63.6225 39.6677 63.699 39.5759Z" fill="#8E714E"/>
<path fill-rule="evenodd" clip-rule="evenodd" d="M45.1617 49.7026C44.7787 49.6566 44.503 49.5955 44.166 49.4423C44.12 49.4116 44.0433 49.2585 44.0433 49.1971C44.0127 48.6608 44.0127 47.1289 44.0127 46.1025C44.0127 45.2751 43.8749 44.5551 43.5225 44.0496C43.1088 43.4672 42.5115 43.1304 41.7453 43.1304C41.0713 43.1304 40.1673 43.5899 39.4166 44.2334C39.4013 44.2487 39.2788 44.3561 39.2941 44.1874C39.2941 44.0189 39.3248 43.6819 39.3401 43.4519C39.3555 43.2375 39.2328 43.1304 39.2328 43.1304C38.7426 43.3754 37.3638 43.6971 36.8581 43.743C36.4906 43.8198 36.3986 44.1721 36.7818 44.2946H36.797C37.2104 44.4172 37.4863 44.5551 37.7007 44.6931C37.8539 44.8156 37.8386 44.9841 37.8386 45.1221C37.8539 46.2709 37.8539 48.0328 37.8081 48.998C37.7928 49.381 37.6855 49.5188 37.4096 49.5801L37.4403 49.5648C37.2258 49.6108 37.0573 49.6566 36.7969 49.6873C36.7049 49.7793 36.7049 50.2695 36.7969 50.3768C36.9654 50.3768 37.8539 50.3308 38.5895 50.3308C39.6005 50.3308 40.1215 50.3768 40.3818 50.3768C40.4891 50.2543 40.5198 49.7946 40.4585 49.6873C40.1673 49.6721 39.9528 49.6415 39.7538 49.5801C39.478 49.5187 39.4013 49.381 39.3859 49.0593C39.3555 48.2471 39.3555 46.5314 39.3555 45.3671C39.3555 45.0454 39.4473 44.8921 39.5391 44.8002C39.8916 44.4939 40.4585 44.2794 40.964 44.2794C41.4543 44.2794 41.7758 44.4326 42.021 44.6318C42.3581 44.9074 42.4653 45.3058 42.5113 45.5969C42.5878 46.2556 42.5573 47.5578 42.5573 48.6916C42.5573 49.3043 42.5113 49.4576 42.2817 49.5341C42.1743 49.5801 41.8985 49.6415 41.5768 49.6719C41.4695 49.7793 41.5003 50.2543 41.5768 50.3615C42.021 50.3615 42.542 50.3155 43.308 50.3155C44.2578 50.3155 44.8707 50.3615 45.1159 50.3615C45.1923 50.2695 45.223 49.8253 45.1617 49.7026ZM49.4054 43.8505C48.5936 43.8505 48.0879 44.4786 48.0879 45.4589C48.0879 46.4548 48.5322 47.6038 49.7884 47.6038C50.0029 47.6038 50.4014 47.5119 50.585 47.2974C50.8762 47.0218 51.0754 46.4701 51.0754 45.8879C51.0754 44.6164 50.4472 43.8505 49.4054 43.8505ZM49.2982 50.6218C48.9919 50.6218 48.7772 50.7138 48.6394 50.7905C47.9959 51.2039 47.7049 51.6023 47.7049 52.0775C47.7049 52.5215 47.8734 52.8738 48.2412 53.1803C48.6854 53.5633 49.2982 53.7472 50.0794 53.7472C51.6421 53.7472 52.3316 52.9045 52.3316 52.0775C52.3316 51.4951 52.0404 51.1121 51.4431 50.8977C51.0141 50.7138 50.2328 50.6218 49.2982 50.6218ZM49.4054 54.6052C48.4709 54.6052 47.7967 54.406 47.2147 53.9617C46.6477 53.5327 46.4027 52.8893 46.4027 52.445C46.4027 52.3225 46.4334 51.9853 46.7092 51.679C46.8775 51.4951 47.2454 51.1428 48.1186 50.5453C48.1492 50.53 48.1645 50.5147 48.1645 50.4839C48.1645 50.4533 48.1337 50.4226 48.1032 50.4075C47.3832 50.1317 47.1687 49.6873 47.1073 49.4423V49.4116C47.0922 49.3196 47.0614 49.2278 47.1994 49.1358C47.3067 49.0593 47.4599 48.9673 47.6282 48.8602C47.8887 48.7068 48.1645 48.5383 48.333 48.4004C48.3637 48.3698 48.3637 48.3393 48.3637 48.3086C48.3637 48.2779 48.333 48.2471 48.3022 48.232C47.2301 47.8796 46.6939 47.0829 46.6939 45.8879C46.6939 45.1066 47.0462 44.4019 47.6742 43.9576C48.1032 43.6206 49.1757 43.2069 49.8804 43.2069H49.9264C50.6464 43.2222 51.0447 43.3754 51.6114 43.5746C51.9179 43.6819 52.2091 43.7277 52.6075 43.7277C53.2049 43.7277 53.4653 43.5439 53.6797 43.3296C53.6951 43.3601 53.7258 43.4368 53.7411 43.6359C53.7564 43.8351 53.6951 44.1261 53.5419 44.3406C53.4193 44.5091 53.1436 44.6318 52.8678 44.6318H52.7911C52.5154 44.6011 52.3927 44.5704 52.3927 44.5704L52.3316 44.6011C52.3163 44.6318 52.3316 44.6624 52.3469 44.7084L52.3623 44.7391C52.3929 44.8769 52.4541 45.2904 52.4541 45.3978C52.4541 46.6541 51.9486 47.2054 51.4124 47.6191C50.8914 48.0021 50.2941 48.2471 49.6199 48.3086C49.6046 48.3086 49.5435 48.3086 49.4054 48.3238C49.3289 48.3238 49.2216 48.3393 49.2062 48.3393H49.1909C49.0684 48.3698 48.7621 48.5231 48.7621 48.7834C48.7621 49.0131 48.8999 49.2891 49.5587 49.335C49.6964 49.3503 49.8342 49.3503 49.9876 49.3658C50.8609 49.4268 51.9486 49.5035 52.4541 49.6721C53.1589 49.9324 53.6031 50.5606 53.6031 51.3113C53.6031 52.4452 52.7913 53.5022 51.4431 54.1608C50.7843 54.452 50.1254 54.6052 49.4054 54.6052ZM58.1378 43.9271C57.8163 43.9271 57.5251 44.0034 57.3106 44.1567C56.7133 44.5244 56.4068 45.2599 56.4068 46.3321C56.4068 48.3393 57.4178 49.7488 58.858 49.7488C59.287 49.7488 59.624 49.6261 59.915 49.381C60.3593 49.0131 60.5892 48.2779 60.5892 47.2514C60.5892 45.2599 59.5933 43.9269 58.138 43.9269L58.1378 43.9271ZM58.4138 50.484C55.8093 50.484 54.8748 48.569 54.8748 46.7766C54.8748 45.5203 55.3803 44.5551 56.3914 43.8657C57.1115 43.4214 57.9695 43.1764 58.7355 43.1764C60.727 43.1764 62.1212 44.6011 62.1212 46.6541C62.1212 48.0481 61.5697 49.1511 60.5125 49.8253C60.007 50.1623 59.1338 50.484 58.4136 50.484H58.4138ZM31.1132 43.9269C30.7914 43.9269 30.5004 44.0034 30.2857 44.1567C29.6884 44.5244 29.3819 45.2599 29.3819 46.3321C29.3819 48.3393 30.393 49.7488 31.8332 49.7488C32.2621 49.7488 32.5992 49.6261 32.8904 49.381C33.3344 49.0131 33.5644 48.2779 33.5644 47.2514C33.5644 45.2599 32.5839 43.9269 31.1132 43.9269ZM31.3889 50.484C28.7845 50.484 27.85 48.569 27.85 46.7766C27.85 45.5203 28.3555 44.5551 29.3665 43.8657C30.0867 43.4214 30.9446 43.1764 31.7106 43.1764C33.7023 43.1764 35.0964 44.6011 35.0964 46.6541C35.0964 48.0481 34.5449 49.1511 33.4877 49.8253C32.9974 50.1623 32.1242 50.484 31.3889 50.484ZM13.8779 50.3308C13.8472 50.285 13.8165 50.147 13.8319 49.9785C13.8319 49.8558 13.8626 49.7793 13.8779 49.7488C14.1996 49.7026 14.3682 49.6566 14.5519 49.6108C14.8584 49.5341 14.9809 49.3658 14.9962 48.9828C15.0423 48.0635 15.0423 46.3169 15.0269 45.1066V45.0759C15.0269 44.9381 15.0269 44.7694 14.8584 44.6469C14.6132 44.4939 14.3222 44.3561 13.9392 44.2485C13.8014 44.2028 13.7094 44.1261 13.7247 44.0343C13.7247 43.9424 13.8167 43.8351 14.0159 43.8044C14.5214 43.7584 15.8387 43.4368 16.3597 43.2069C16.3904 43.2375 16.4364 43.3296 16.4364 43.4521L16.4211 43.6204C16.4057 43.7891 16.3904 43.9883 16.3904 44.1874C16.3904 44.2487 16.4518 44.2946 16.5129 44.2946C16.5436 44.2946 16.5743 44.2794 16.6049 44.2639C17.5854 43.4979 18.4739 43.2222 18.9334 43.2222C19.6843 43.2222 20.2665 43.5746 20.7108 44.3099C20.7413 44.3561 20.772 44.3713 20.818 44.3713C20.8486 44.3713 20.8944 44.3561 20.9098 44.3254C21.8138 43.6359 22.7177 43.2222 23.3151 43.2222C24.7398 43.2222 25.5825 44.2794 25.5825 46.0718C25.5825 46.5774 25.5825 47.2361 25.5672 47.8338C25.5672 48.3698 25.552 48.8601 25.552 49.2125C25.552 49.2889 25.659 49.5341 25.8275 49.5801C26.042 49.6873 26.3332 49.7333 26.7162 49.7946H26.7315C26.7622 49.9018 26.701 50.3001 26.6397 50.3768C26.5477 50.3768 26.4098 50.3768 26.2567 50.3615C25.8689 50.3413 25.4806 50.331 25.0923 50.3308C24.1425 50.3308 23.6522 50.3461 23.1771 50.3768C23.1467 50.2543 23.1313 49.8865 23.1771 49.7946C23.453 49.7488 23.5908 49.7026 23.7595 49.6568C24.066 49.5648 24.1425 49.4268 24.1579 49.0286C24.1579 48.7375 24.219 46.2556 24.1271 45.6581C24.0352 45.0454 23.5755 44.3254 22.5643 44.3254C22.1813 44.3254 21.584 44.4786 21.0018 44.9227C20.9713 44.9534 20.9404 45.0299 20.9404 45.0759V45.0913C21.0018 45.4129 21.0018 45.7808 21.0018 46.3476V47.3434C21.0018 48.0328 20.9864 48.6763 21.0018 49.1664C21.0018 49.5035 21.201 49.5801 21.3695 49.6415C21.4615 49.6566 21.5226 49.6721 21.5993 49.6873C21.7371 49.718 21.875 49.7488 22.0895 49.7946C22.1203 49.856 22.1203 50.055 22.0743 50.2236C22.0588 50.3155 22.0281 50.3613 22.0128 50.3768C21.4921 50.3615 20.9558 50.3461 20.1746 50.3461C19.9448 50.3461 19.5463 50.3615 19.2093 50.3615C18.9334 50.3615 18.6731 50.3768 18.52 50.3768C18.5046 50.3461 18.4739 50.239 18.4739 50.0703C18.4739 49.9325 18.5046 49.8253 18.5353 49.7946C18.6118 49.7793 18.6731 49.764 18.7498 49.764C18.9334 49.7333 19.0868 49.7026 19.2399 49.6721C19.5005 49.5955 19.5923 49.4576 19.6076 49.1205C19.6536 48.3546 19.6996 46.1638 19.5923 45.6121C19.4086 44.7236 18.903 44.2794 18.0909 44.2794C17.6161 44.2794 17.0184 44.5091 16.5283 44.877C16.4516 44.9381 16.3904 45.0912 16.3904 45.2291V46.1331C16.3904 47.2361 16.3904 48.615 16.4057 49.2125C16.4211 49.3961 16.4822 49.6108 16.8346 49.6873C16.9113 49.7026 17.0339 49.7333 17.1871 49.7488L17.4627 49.7946C17.4936 49.8865 17.4781 50.2543 17.4169 50.3768C17.2636 50.3768 17.0799 50.3615 16.8652 50.3615C16.5436 50.3461 16.1299 50.3308 15.6704 50.3308C15.1341 50.3308 14.7512 50.3461 14.4447 50.3615C14.2302 50.3308 14.0617 50.3308 13.8779 50.3308Z" fill="#442D22"/>
<path fill-rule="evenodd" clip-rule="evenodd" d="M5.81935 54.0078L5.19132 53.7931C5.19132 53.7931 5.26801 50.5913 4.11885 50.3616C3.35302 49.4729 4.24171 12.6739 6.99923 50.2389C6.99923 50.2389 6.04928 50.7137 5.88078 51.5258C5.69683 52.3225 5.81935 54.0078 5.81935 54.0078Z" fill="white"/>
<path fill-rule="evenodd" clip-rule="evenodd" d="M5.81935 54.0078L5.19132 53.7931C5.19132 53.7931 5.26801 50.5913 4.11885 50.3616C3.35302 49.4729 4.24171 12.6739 6.99923 50.2389C6.99923 50.2389 6.04928 50.7137 5.88078 51.5258C5.69683 52.3225 5.81935 54.0078 5.81935 54.0078Z" fill="#A6A385"/>
<path fill-rule="evenodd" clip-rule="evenodd" d="M6.1565 50.9131C6.1565 50.9131 11.6566 47.2974 10.3695 39.7751C9.12868 34.3061 6.20249 32.5136 5.88075 31.8241C5.52846 31.3339 5.19128 30.4761 5.19128 30.4761L5.42122 45.6888C5.42122 45.7042 4.94624 50.3462 6.15666 50.9133" fill="white"/>
<path fill-rule="evenodd" clip-rule="evenodd" d="M6.1565 50.9131C6.1565 50.9131 11.6566 47.2974 10.3695 39.7751C9.12868 34.3061 6.20249 32.5136 5.88075 31.8241C5.52846 31.3339 5.19128 30.4761 5.19128 30.4761L5.42122 45.6888C5.42122 45.7042 4.94624 50.3462 6.15666 50.9133" fill="#499D4A"/>
<path fill-rule="evenodd" clip-rule="evenodd" d="M4.86974 51.112C4.86974 51.112 -0.293342 47.5884 0.0131226 41.3839C0.304148 35.1792 3.95035 32.1305 4.65509 31.579C5.11478 31.0887 5.13006 30.9048 5.16077 30.4146C5.48251 31.104 5.42125 40.7251 5.46707 41.8587C5.60486 46.2249 5.22203 50.285 4.86974 51.112Z" fill="white"/>
<path fill-rule="evenodd" clip-rule="evenodd" d="M4.86974 51.112C4.86974 51.112 -0.293342 47.5884 0.0131226 41.3839C0.304148 35.1792 3.95035 32.1305 4.65509 31.579C5.11478 31.0887 5.13006 30.9048 5.16077 30.4146C5.48251 31.104 5.42125 40.7251 5.46707 41.8587C5.60486 46.2249 5.22203 50.285 4.86974 51.112Z" fill="#58AA50"/>
</g>
<defs>
<clipPath id="clip0_302_670">
<rect width="85" height="85" fill="white"/>
</clipPath>
</defs>
</svg>
