<svg width="62" height="70" viewBox="0 0 62 70" fill="none" xmlns="http://www.w3.org/2000/svg">
<path d="M53.9129 13.6292C53.8645 13.2772 53.5563 13.0826 53.3016 13.0612C53.0474 13.0399 47.667 12.6412 47.667 12.6412C47.667 12.6412 43.9304 8.93149 43.5204 8.52099C43.1099 8.11049 42.3086 8.23533 41.9976 8.32699C41.9515 8.34048 41.1811 8.57835 39.9063 8.97254C38.658 5.38094 36.4553 2.08006 32.5797 2.08006C32.4729 2.08006 32.3627 2.08456 32.2525 2.09074C31.1503 0.633184 29.7849 0 28.6057 0C19.5781 0 15.265 11.2854 13.9126 17.0206C10.4048 18.1076 7.91255 18.8802 7.59427 18.9803C5.63624 19.5944 5.57438 19.6563 5.31739 21.5013C5.12339 22.8981 0 62.5199 0 62.5199L39.9226 70L61.5544 65.3203C61.5544 65.3203 53.9607 13.9812 53.9129 13.6292ZM37.6997 9.65521C36.6971 9.96562 35.5573 10.3182 34.3218 10.7006C34.323 10.4627 34.3241 10.2282 34.3241 9.97236C34.3241 7.73991 34.0142 5.94271 33.5171 4.51776C35.514 4.76856 36.8439 7.04038 37.6997 9.65521ZM31.0401 4.96032C31.5951 6.35152 31.9561 8.34779 31.9561 11.0419C31.9561 11.1797 31.955 11.3057 31.9539 11.4333C29.7568 12.1137 27.3697 12.8526 24.977 13.5938C26.3204 8.40909 28.8385 5.90503 31.0401 4.96032ZM28.3578 2.42139C28.7474 2.42139 29.14 2.55354 29.5156 2.81221C26.6224 4.17362 23.5211 7.60271 22.2115 14.4502C20.2973 15.0429 18.4264 15.6221 16.6967 16.158C18.2307 10.9351 21.8735 2.42139 28.3578 2.42139Z" fill="#95BF46"/>
<path d="M53.3015 13.0612C53.0473 13.0399 47.667 12.6412 47.667 12.6412C47.667 12.6412 43.9303 8.93149 43.5203 8.52099C43.3668 8.36804 43.1599 8.28987 42.9434 8.25613L39.9248 69.9994L61.5543 65.3203C61.5543 65.3203 53.9606 13.9812 53.9128 13.6292C53.8644 13.2772 53.5563 13.0826 53.3015 13.0612Z" fill="#5E8E3E"/>
<path d="M32.5798 25.0136L29.9126 32.9475C29.9126 32.9475 27.5756 31.7002 24.7111 31.7002C20.5116 31.7002 20.3002 34.3359 20.3002 35C20.3002 38.6237 29.7462 40.012 29.7462 48.4999C29.7462 55.1775 25.5107 59.4777 19.7997 59.4777C12.9466 59.4777 9.44214 55.2124 9.44214 55.2124L11.277 49.1499C11.277 49.1499 14.8793 52.2427 17.9193 52.2427C19.9054 52.2427 20.7135 50.6789 20.7135 49.5362C20.7135 44.8093 12.964 44.5984 12.964 36.8315C12.964 30.2944 17.6561 23.9682 27.1274 23.9682C30.7769 23.9682 32.5798 25.0136 32.5798 25.0136Z" fill="white"/>
</svg>
