<svg width="70" height="70" viewBox="0 0 70 70" fill="none" xmlns="http://www.w3.org/2000/svg">
<path fill-rule="evenodd" clip-rule="evenodd" d="M49.2953 36.1813C48.4422 37.0345 47.0575 37.0345 46.2022 36.1813L37.1875 27.1469V50.3125C37.1875 51.5156 36.2097 52.5 35 52.5C33.7903 52.5 32.8125 51.5156 32.8125 50.3125V27.1469L23.7978 36.1813C22.9425 37.0345 21.5556 37.0345 20.7047 36.1813C19.8494 35.3063 19.8494 33.9281 20.7047 33.075L33.0772 20.6937C33.6022 20.1687 34.3197 20.0155 35 20.1468C35.6803 20.0155 36.3978 20.1687 36.9228 20.6937L49.2953 33.075C50.1506 33.9281 50.1506 35.3063 49.2953 36.1813ZM35 0C15.6691 0 0 15.6625 0 35C0 54.3375 15.6691 70 35 70C54.3309 70 70 54.3375 70 35C70 15.6625 54.3309 0 35 0Z" fill="#2886FF"/>
</svg>
