<svg width="57" height="55" viewBox="0 0 57 55" fill="none" xmlns="http://www.w3.org/2000/svg">
<path d="M54.3031 38.0396C54.3031 38.0396 53.5162 34.5351 52.9446 32.8905C52.3723 31.2451 49.6546 32.0319 49.6546 32.0319L47.0692 26.838L48.0856 22.4773C48.0856 22.4773 50.7228 22.4342 52.2694 22.1384C53.8159 21.8418 53.7865 20.8207 53.2979 19.9804C52.1723 18.0431 48.6118 15.1437 48.6118 15.1437C47.8242 7.86281 44.1729 4.09044 38.8333 3.21592L41.0009 2.20499L39.4631 0L35.8167 2.87471L31.8912 0.233594L30.7886 2.68575L32.4939 3.36495C32.3049 3.39845 32.1128 3.4335 31.9214 3.47178C22.9353 5.25275 21.7937 14.9381 21.7937 14.9381C21.7937 14.9381 18.938 17.7538 17.6068 18.9544C16.2762 20.155 16.4946 20.7641 17.0455 21.2217C17.5964 21.6785 22.7798 20.2914 22.7798 20.2914C22.7798 20.2914 23.3187 21.9272 23.4351 22.4152C23.5515 22.9015 22.4665 25.4406 21.6341 27.1841C21.1104 28.2787 22.6123 29.2361 24.3152 28.9762C25.5349 28.7897 25.4384 29.6658 25.3706 30.88C25.3451 31.3328 26.1113 31.6573 26.647 31.666C26.3026 31.8821 25.9271 32.24 26.0881 32.5892C26.5529 33.5985 26.981 32.771 27.4641 33.7316C28.0253 34.8484 28.4487 36.9173 30.2535 36.7794C32.0592 36.6423 33.9701 35.4114 33.9701 35.4114L35.708 38.7549L33.4184 43.3324C33.4184 43.3324 31.6956 44.9636 30.2981 49.1576C44.9756 43.216 55.4605 45.6626 56.858 42.1685C57.7296 39.9913 54.3031 38.0396 54.3031 38.0396Z" fill="white"/>
<path d="M11.2086 45.335C13.5476 43.4064 14.3049 39.8207 12.8357 36.619C11.1202 32.8801 7.02483 31.0887 3.68771 32.6203C0.352161 34.1501 -0.962393 38.4232 0.753138 42.1629C2.31808 45.5733 5.86086 47.3543 9.00355 46.4821L12.54 54.192C12.7935 54.742 13.503 54.958 14.1256 54.6719C14.7498 54.3864 15.0496 53.7065 14.7969 53.1571L11.2086 45.335ZM3.24533 41.0187C2.14757 38.6279 2.98703 35.896 5.1219 34.9169C7.2553 33.938 9.87562 35.0835 10.9718 37.476C12.0688 39.8668 11.2293 42.5997 9.09525 43.5769C6.96106 44.5568 4.34143 43.4112 3.24533 41.0187Z" fill="white"/>
</svg>
