<svg width="50" height="50" viewBox="0 0 50 50" fill="none" xmlns="http://www.w3.org/2000/svg">
<path d="M22.6111 20H17.3889C16.6218 20 16 20.6218 16 21.3889V34.6111C16 35.3782 16.6218 36 17.3889 36H22.6111C23.3782 36 24 35.3782 24 34.6111V21.3889C24 20.6218 23.3782 20 22.6111 20Z" fill="white"/>
<path d="M34.6111 4H29.3889C28.6218 4 28 4.62183 28 5.38889V34.6111C28 35.3782 28.6218 36 29.3889 36H34.6111C35.3782 36 36 35.3782 36 34.6111V5.38889C36 4.62183 35.3782 4 34.6111 4Z" fill="white"/>
<path d="M46.6111 14.6667H41.3889C40.6218 14.6667 40 15.2885 40 16.0555V34.6111C40 35.3782 40.6218 36 41.3889 36H46.6111C47.3782 36 48 35.3782 48 34.6111V16.0555C48 15.2885 47.3782 14.6667 46.6111 14.6667Z" fill="white"/>
</svg>
