<svg width="50" height="50" viewBox="0 0 50 50" fill="none" xmlns="http://www.w3.org/2000/svg">
<path d="M47.921 8.0334C47.3528 6.72598 46.3716 5.6002 45.127 4.62969C43.2541 3.175 40.7561 2.03965 37.8347 1.24189C34.913 0.446777 31.5642 0 28 0C22.5682 0.00351562 17.6415 1.03008 13.9523 2.7709C12.1077 3.6458 10.5644 4.70059 9.42987 5.96553C8.86435 6.59834 8.40253 7.28799 8.07909 8.0335C7.75644 8.779 7.57655 9.58291 7.57733 10.4056V39.5938C7.57655 40.4163 7.75644 41.2212 8.07909 41.9658C8.64726 43.2732 9.62851 44.3989 10.873 45.3704C12.7461 46.8251 15.2438 47.9605 18.1655 48.7583C21.087 49.5532 24.4358 49.9992 28 50C33.4328 49.9955 38.3584 48.9701 42.0476 47.2282C43.8922 46.3534 45.4354 45.2994 46.57 44.0337C47.1356 43.4017 47.5974 42.712 47.9209 41.9657C48.2435 41.2212 48.4234 40.4162 48.4226 39.5937V10.4055C48.4235 9.58281 48.2436 8.77891 47.921 8.0334ZM45.6057 39.5938C45.6048 40.013 45.5188 40.4217 45.3353 40.8479C45.0162 41.5898 44.3735 42.3876 43.3958 43.1473C41.9342 44.2898 39.7465 45.3208 37.0944 46.0404C34.4423 46.7619 31.3274 47.1839 27.9999 47.183C22.9307 47.1875 18.3497 46.1982 15.1578 44.6824C13.5604 43.929 12.3195 43.0443 11.5307 42.157C11.1336 41.7139 10.8481 41.2725 10.6646 40.8479C10.481 40.4215 10.3951 40.0129 10.3942 39.5937V34.7733C12.0235 36.2626 14.3113 37.4521 17.0475 38.3314C20.2022 39.3393 23.9605 39.9181 27.9999 39.9189C33.3866 39.9163 38.2698 38.8942 41.897 37.1817C43.3551 36.4903 44.6014 35.681 45.6056 34.7601V39.5938H45.6057ZM45.6057 31.367C45.4054 31.7969 45.119 32.2277 44.7326 32.6629C43.4846 34.0687 41.2251 35.3922 38.3098 36.3193C35.3953 37.2518 31.8364 37.8066 28 37.8059C22.8855 37.8085 18.2611 36.8156 15.0072 35.2717C13.3789 34.5031 12.1007 33.5981 11.2676 32.6629C10.881 32.2277 10.5947 31.7969 10.3943 31.368V25.0443C12.0236 26.5335 14.3114 27.723 17.0476 28.6023C20.2023 29.6093 23.9606 30.1881 28 30.1891C33.3867 30.1863 38.2699 29.1645 41.8971 27.4518C43.3552 26.7604 44.6015 25.952 45.6057 25.0311V31.367ZM45.6057 21.6379C45.4054 22.0678 45.119 22.4985 44.7326 22.9329C43.4846 24.3387 41.2251 25.663 38.3098 26.5893C35.3953 27.5218 31.8364 28.0767 28 28.0758C22.8855 28.0785 18.2611 27.0857 15.0072 25.5425C13.3789 24.7739 12.1007 23.8681 11.2676 22.9329C10.881 22.4985 10.5947 22.0678 10.3943 21.6379V15.3143C12.0236 16.8043 14.3114 17.993 17.0476 18.8731C20.2023 19.881 23.9606 20.4598 28 20.4598C33.3867 20.4571 38.2699 19.4359 41.8971 17.7226C43.3552 17.0312 44.6015 16.2228 45.6057 15.3018V21.6379ZM45.6057 11.9078C45.4054 12.3378 45.119 12.7694 44.7326 13.2038C43.4846 14.6105 41.2251 15.9339 38.3098 16.8611C35.3953 17.7936 31.8364 18.3484 28 18.3477C22.8855 18.3503 18.2611 17.3574 15.0072 15.8135C13.3789 15.044 12.1007 14.139 11.2676 13.2039C10.881 12.7695 10.5947 12.3379 10.3943 11.9088V10.4055C10.3953 9.98613 10.4812 9.57842 10.6647 9.15205C10.9839 8.40918 11.6265 7.6124 12.6042 6.85186C14.0659 5.70928 16.2535 4.67842 18.9056 3.95957C21.5577 3.23711 24.6725 2.81611 28 2.81699C33.0693 2.8125 37.6503 3.80186 40.8422 5.31758C42.4394 6.07012 43.6795 6.95478 44.4693 7.84297C44.8664 8.28613 45.1517 8.72676 45.3353 9.15215C45.5187 9.57852 45.6047 9.98623 45.6057 10.4056V11.9078Z" fill="white"/>
</svg>
