<svg width="21" height="19" viewBox="0 0 21 19" fill="none" xmlns="http://www.w3.org/2000/svg">
<g clip-path="url(#clip0_6_454)">
<path d="M8.85381 0.441895V11.0577H11.74V0.441895H8.85381ZM3.18215 3.12973C1.36144 4.79068 0.235779 7.08566 0.235779 9.62019C0.235779 14.6892 4.7403 18.7985 10.2969 18.7985C15.8535 18.7985 20.358 14.6892 20.358 9.62019C20.358 7.08566 19.2324 4.79068 17.4117 3.12973L15.3852 4.97839C16.6874 6.16634 17.4927 7.80763 17.4927 9.62019C17.4927 13.2453 14.2707 16.1846 10.2969 16.1846C6.32308 16.1846 3.10109 13.2453 3.10109 9.62019C3.10109 7.80763 3.9064 6.16634 5.20863 4.97839L3.18215 3.12973Z" fill="black"/>
</g>
<defs>
<clipPath id="clip0_6_454">
<rect width="20.1223" height="18.3566" fill="white" transform="translate(0.235779 0.441895)"/>
</clipPath>
</defs>
</svg>
