<svg width="50" height="50" viewBox="0 0 50 50" fill="none" xmlns="http://www.w3.org/2000/svg">
<path d="M32.8125 20.6562H42.1875C43.2231 20.6551 44.216 20.2432 44.9484 19.5109C45.6807 18.7785 46.0926 17.7856 46.0938 16.75V7.375C46.0926 6.33935 45.6807 5.34645 44.9484 4.61414C44.216 3.88182 43.2231 3.4699 42.1875 3.46875H32.8125C31.7769 3.4699 30.784 3.88182 30.0516 4.61414C29.3193 5.34645 28.9074 6.33935 28.9062 7.375V9.71875H28.125C26.2608 9.72085 24.4736 10.4623 23.1555 11.7805C21.8373 13.0986 21.0958 14.8858 21.0938 16.75V20.6562H17.9688V19.0938C17.9676 18.0581 17.5557 17.0652 16.8234 16.3329C16.091 15.6006 15.0981 15.1887 14.0625 15.1875H6.25C5.21435 15.1887 4.22145 15.6006 3.48914 16.3329C2.75682 17.0652 2.3449 18.0581 2.34375 19.0938V26.9062C2.3449 27.9419 2.75682 28.9348 3.48914 29.6671C4.22145 30.3994 5.21435 30.8113 6.25 30.8125H14.0625C15.0981 30.8113 16.091 30.3994 16.8234 29.6671C17.5557 28.9348 17.9676 27.9419 17.9688 26.9062V25.3438H21.0938V29.25C21.0958 31.1142 21.8373 32.9014 23.1555 34.2195C24.4736 35.5377 26.2608 36.2792 28.125 36.2812H28.9062V38.625C28.9074 39.6606 29.3193 40.6535 30.0516 41.3859C30.784 42.1182 31.7769 42.5301 32.8125 42.5312H42.1875C43.2231 42.5301 44.216 42.1182 44.9484 41.3859C45.6807 40.6535 46.0926 39.6606 46.0938 38.625V29.25C46.0926 28.2144 45.6807 27.2215 44.9484 26.4891C44.216 25.7568 43.2231 25.3449 42.1875 25.3438H32.8125C31.7769 25.3449 30.784 25.7568 30.0516 26.4891C29.3193 27.2215 28.9074 28.2144 28.9062 29.25V31.5938H28.125C27.5036 31.5931 26.9079 31.3459 26.4685 30.9065C26.0291 30.4671 25.7819 29.8714 25.7812 29.25V16.75C25.7819 16.1286 26.0291 15.5329 26.4685 15.0935C26.9079 14.6541 27.5036 14.4069 28.125 14.4062H28.9062V16.75C28.9074 17.7856 29.3193 18.7785 30.0516 19.5109C30.784 20.2432 31.7769 20.6551 32.8125 20.6562ZM13.2812 26.125H7.03125V19.875H13.2812V26.125ZM33.5938 30.0312H41.4062V37.8438H33.5938V30.0312ZM33.5938 8.15625H41.4062V15.9688H33.5938V8.15625Z" fill="white"/>
</svg>
