<svg width="50" height="47" viewBox="0 0 50 47" fill="none" xmlns="http://www.w3.org/2000/svg">
<path d="M16.4691 31.0041C16.4691 26.3121 22.5535 25.5615 22.5535 22.9767C22.5535 21.841 21.6745 21.162 20.5746 21.162C19.054 21.162 18.2286 22.7021 18.2286 22.7021L16.4692 21.5292C16.4692 21.5292 17.66 18.9265 20.7761 18.9265C23.0669 18.9265 25.0099 20.3188 25.0099 22.7753C25.0099 26.9539 19.1822 27.6687 19.127 30.1251H25.2114V32.1592H16.5795C16.5243 31.7384 16.4691 31.3713 16.4691 31.0041ZM26.5366 27.3569L32.145 19.1459H34.9491V26.8435H36.6355V28.806H34.9491V32.1593H32.621V28.806H26.5366V27.3569ZM32.621 26.8435V22.8127C32.621 22.171 32.7134 21.4561 32.7134 21.4561H32.6761C32.6761 21.4561 32.3836 22.1516 32.0344 22.647L29.0288 26.8077V26.8435H32.621ZM44.0994 26.1537L43.6465 27.7758C41.0724 36.9966 31.6797 42.815 22.3883 40.5089C13.4639 38.294 7.91754 29.6465 9.2512 20.8363L11.9403 21.5869C12.5635 21.761 13.1416 21.195 12.9805 20.5681L10.0562 9.18083C9.89524 8.55403 9.11615 8.33655 8.65373 8.78932L0.253005 17.015C-0.209413 17.4677 -0.00826926 18.2514 0.615178 18.4254L3.54214 19.2425C1.35782 31.1601 8.71002 43.0295 20.7077 46.1538C33.166 49.398 45.8731 41.6866 49.3347 29.2869L49.7676 27.7361C49.8924 27.2889 49.6312 26.8253 49.1839 26.7003L45.1352 25.57C44.6879 25.4451 44.2242 25.7066 44.0994 26.1537ZM48.8836 19.0581L44.6377 19.6097C44.1772 19.6695 43.8526 20.0913 43.9123 20.5517L44.0796 21.8395C44.1394 22.2999 44.5612 22.6247 45.0216 22.5648L49.2675 22.0132C49.728 21.9534 50.0526 21.5316 49.9929 21.0712L49.8255 19.7834C49.7658 19.3231 49.3441 18.9983 48.8836 19.0581ZM45.615 11.0349L41.885 13.137C41.4805 13.3649 41.3374 13.8776 41.5653 14.2821L42.2028 15.4134C42.4308 15.8179 42.9434 15.9611 43.348 15.7331L47.078 13.6311C47.4825 13.4031 47.6256 12.8905 47.3977 12.4859L46.7602 11.3546C46.5322 10.9501 46.0195 10.807 45.615 11.0349ZM39.579 4.82037L36.9079 8.16661C36.6182 8.52944 36.6777 9.05852 37.0405 9.34807L38.0554 10.1582C38.4183 10.4479 38.9473 10.3885 39.2369 10.0256L41.908 6.67936C42.1977 6.31645 42.1382 5.78745 41.7754 5.49782L40.7604 4.68769C40.3976 4.39815 39.8686 4.45746 39.579 4.82037ZM31.6544 1.31948L30.4313 5.42266C30.2987 5.86759 30.5519 6.33589 30.9968 6.46849L32.2413 6.83941C32.6862 6.97209 33.1545 6.71882 33.2871 6.27397L34.5102 2.17078C34.6428 1.72585 34.3896 1.25763 33.9446 1.12495L32.7002 0.754036C32.2553 0.621357 31.787 0.874543 31.6544 1.31948ZM22.9954 1.04211L23.3984 5.30469C23.4421 5.76694 23.8523 6.10624 24.3145 6.06253L25.6073 5.94023C26.0696 5.89652 26.4089 5.48639 26.3652 5.02413L25.9621 0.761553C25.9183 0.299298 25.5081 -0.0399174 25.046 0.00379167L23.7532 0.126014C23.291 0.169723 22.9517 0.579853 22.9954 1.04211ZM14.863 4.02871L16.8335 7.82985C17.0472 8.24202 17.5546 8.40297 17.9669 8.18924L19.1197 7.59169C19.5319 7.37797 19.6929 6.87062 19.4791 6.45836L17.5086 2.65722C17.295 2.24505 16.7876 2.0841 16.3753 2.29783L15.2224 2.89546C14.8103 3.10902 14.6494 3.61645 14.863 4.02871Z" fill="white"/>
</svg>
