<svg width="26" height="24" viewBox="0 0 26 24" fill="none" xmlns="http://www.w3.org/2000/svg">
<path d="M23.221 14.168L21.5763 12.9132C21.6542 12.4874 21.6943 12.0527 21.6943 11.618C21.6943 11.1833 21.6542 10.7486 21.5763 10.3228L23.221 9.06798C23.345 8.97321 23.4338 8.84699 23.4755 8.70609C23.5172 8.5652 23.5099 8.41631 23.4545 8.27922L23.4319 8.22096C22.9791 7.09165 22.3011 6.04477 21.4307 5.13091L21.3855 5.08385C21.2799 4.97305 21.1392 4.8934 20.9818 4.85539C20.8245 4.81739 20.658 4.82282 20.5042 4.87097L18.4628 5.51856C17.7095 4.96733 16.8683 4.53261 15.9594 4.22787L15.5652 2.32319C15.5354 2.17987 15.4575 2.04803 15.3418 1.94516C15.2261 1.8423 15.0781 1.77329 14.9174 1.74731L14.8496 1.7361C13.5414 1.52547 12.1654 1.52547 10.8572 1.7361L10.7894 1.74731C10.6287 1.77329 10.4807 1.8423 10.365 1.94516C10.2492 2.04803 10.1713 2.17987 10.1416 2.32319L9.74488 4.23683C8.84319 4.54165 8.00348 4.97614 7.25907 5.52304L5.20263 4.87097C5.04888 4.82244 4.88221 4.81681 4.72479 4.85484C4.56737 4.89286 4.42664 4.97274 4.3213 5.08385L4.2761 5.13091C3.40668 6.04542 2.7288 7.09213 2.2749 8.22096L2.2523 8.27922C2.13931 8.55932 2.23222 8.87303 2.48582 9.06798L4.15056 10.3363C4.07272 10.7575 4.03505 11.1878 4.03505 11.6158C4.03505 12.046 4.07272 12.4762 4.15056 12.8953L2.48582 14.1636C2.36177 14.2583 2.27298 14.3845 2.23127 14.5254C2.18956 14.6663 2.19689 14.8152 2.2523 14.9523L2.2749 15.0106C2.72938 16.1399 3.4023 17.1819 4.2761 18.1006L4.3213 18.1477C4.42689 18.2585 4.56763 18.3381 4.72496 18.3761C4.88229 18.4141 5.04883 18.4087 5.20263 18.3606L7.25907 17.7085C8.00732 18.2575 8.84346 18.6922 9.74488 18.9947L10.1416 20.9083C10.1713 21.0517 10.2492 21.1835 10.365 21.2864C10.4807 21.3892 10.6287 21.4582 10.7894 21.4842L10.8572 21.4954C12.1774 21.7072 13.5294 21.7072 14.8496 21.4954L14.9174 21.4842C15.0781 21.4582 15.2261 21.3892 15.3418 21.2864C15.4575 21.1835 15.5354 21.0517 15.5652 20.9083L15.9594 19.0037C16.868 18.6997 17.7139 18.2636 18.4628 17.713L20.5042 18.3606C20.6579 18.4091 20.8246 18.4147 20.982 18.3767C21.1394 18.3387 21.2802 18.2588 21.3855 18.1477L21.4307 18.1006C22.3045 17.1797 22.9774 16.1399 23.4319 15.0106L23.4545 14.9523C23.5675 14.6767 23.4746 14.363 23.221 14.168ZM19.7936 10.5872C19.8563 10.9256 19.889 11.2729 19.889 11.6202C19.889 11.9676 19.8563 12.3149 19.7936 12.6533L19.6278 13.5518L21.5035 14.9837C21.2192 15.5683 20.8602 16.1217 20.4339 16.6329L18.1037 15.8957L17.3153 16.4738C16.7152 16.913 16.0473 17.2581 15.3241 17.5001L14.3675 17.8205L13.918 19.9941C13.2089 20.0658 12.4929 20.0658 11.7837 19.9941L11.3343 17.816L10.3852 17.4911C9.66955 17.2491 9.00416 16.904 8.40907 16.4671L7.62064 15.8867L5.27545 16.6307C4.84859 16.1175 4.49204 15.564 4.2058 14.9814L6.10154 13.5361L5.93833 12.6398C5.87807 12.3059 5.84542 11.9608 5.84542 11.6202C5.84542 11.2774 5.87556 10.9346 5.93833 10.6007L6.10154 9.70437L4.2058 8.25905C4.48953 7.67421 4.84859 7.12297 5.27545 6.60983L7.62064 7.35377L8.40907 6.77341C9.00416 6.33645 9.66955 5.99137 10.3852 5.74936L11.3368 5.42893L11.7863 3.25088C12.4918 3.17917 13.2125 3.17917 13.9205 3.25088L14.37 5.42445L15.3266 5.74488C16.0473 5.98689 16.7177 6.33197 17.3178 6.77117L18.1062 7.34929L20.4364 6.61207C20.8632 7.12521 21.2198 7.67869 21.506 8.2613L19.6304 9.69316L19.7936 10.5872ZM12.8559 7.45237C10.4153 7.45237 8.43669 9.21812 8.43669 11.3962C8.43669 13.5742 10.4153 15.34 12.8559 15.34C15.2965 15.34 17.2751 13.5742 17.2751 11.3962C17.2751 9.21812 15.2965 7.45237 12.8559 7.45237ZM14.8446 13.1709C14.5837 13.4043 14.2737 13.5894 13.9325 13.7156C13.5912 13.8417 13.2253 13.9064 12.8559 13.9059C12.1051 13.9059 11.3996 13.6437 10.8673 13.1709C10.6057 12.9381 10.3983 12.6615 10.2569 12.3569C10.1156 12.0523 10.0431 11.7258 10.0437 11.3962C10.0437 10.7262 10.3375 10.0965 10.8673 9.62146C11.3996 9.14641 12.1051 8.88648 12.8559 8.88648C13.6067 8.88648 14.3122 9.14641 14.8446 9.62146C15.1061 9.85423 15.3136 10.1309 15.4549 10.4354C15.5962 10.74 15.6687 11.0665 15.6681 11.3962C15.6681 12.0662 15.3744 12.6958 14.8446 13.1709Z" fill="black"/>
</svg>
