<svg width="50" height="50" viewBox="0 0 50 50" fill="none" xmlns="http://www.w3.org/2000/svg">
<g clip-path="url(#clip0_1321_190)">
<path d="M48.903 6.72188C48.9038 5.92178 48.2571 5.27432 47.4588 5.27344C46.6588 5.27266 46.0105 5.92012 46.0096 6.71934C46.0096 7.51846 46.6571 8.1668 47.4555 8.1668C48.2555 8.16856 48.903 7.52031 48.903 6.72188Z" fill="white"/>
<path d="M14.6404 33.6068C12.7154 35.5318 12.7154 38.6636 14.6404 40.5886C16.5655 42.5137 19.698 42.5137 21.6231 40.5886L35.9233 26.2884H21.9595L14.6404 33.6068Z" fill="white"/>
<path d="M39.4584 6.83408C38.293 5.66777 36.3959 5.66777 35.2305 6.83408C34.4765 7.58799 34.211 8.64697 34.4321 9.61689L34.2407 9.80908L12.5422 31.5077C9.45917 34.5899 9.45917 39.6055 12.5422 42.6877C15.6236 45.7708 20.64 45.7708 23.7215 42.6877L45.4208 20.9892L45.6122 20.7978C46.5821 21.0188 47.642 20.7532 48.3959 19.9994C49.5613 18.8331 49.5622 16.9369 48.3959 15.7715L39.4584 6.83408ZM44.2883 20.1132L38.6756 25.7267L22.7184 41.6839C20.1847 44.2168 16.0788 44.2168 13.5451 41.6839C11.0131 39.151 11.0131 35.0443 13.5451 32.5113L29.4239 16.6326L35.1166 10.9415L35.3888 10.6677C35.4266 10.7089 35.4647 10.7485 35.5042 10.788L44.4417 19.7255C44.4805 19.765 44.5208 19.803 44.5613 19.8409L44.2883 20.1132ZM47.3912 18.9956C46.9681 19.4187 46.3635 19.549 45.8273 19.3883L45.4207 18.9816L36.2482 9.80918L35.8416 9.40254C35.6799 8.86641 35.8111 8.26104 36.2342 7.83789C36.8471 7.2251 37.8417 7.2251 38.4545 7.83789L47.3911 16.7744C48.0048 17.3881 48.0048 18.382 47.3912 18.9956Z" fill="white"/>
</g>
<defs>
<clipPath id="clip0_1321_190">
<rect width="50" height="50" fill="white"/>
</clipPath>
</defs>
</svg>
